<?xml version="1.0" standalone="no"?><!-- Generator: Gravit.io --><svg xmlns="http://www.w3.org/2000/svg" xmlns:xlink="http://www.w3.org/1999/xlink" style="isolation:isolate" viewBox="0 0 370 370" width="370" height="370"><defs><clipPath id="_clipPath_h1DSfqFsKttcmMbdudcpWhmslqwB0fTK"><rect width="370" height="370"/></clipPath></defs><g clip-path="url(#_clipPath_h1DSfqFsKttcmMbdudcpWhmslqwB0fTK)"><rect width="370" height="370" style="fill:rgb(16,18,20)" fill-opacity="0"/><path d="M 232.181 21.436 L 350.054 137.652 C 374.686 161.939 374.964 201.651 350.673 226.279 L 231.47 347.135 C 207.179 371.763 167.459 372.04 142.826 347.754 L 24.954 231.538 C 0.321 207.251 0.044 167.539 24.335 142.911 L 143.538 22.055 C 167.829 -2.573 207.549 -2.85 232.181 21.436 Z" style="fill:none;stroke:#FFFFFF;stroke-width:2;stroke-linecap:square;stroke-miterlimit:2;"/><path d="M 182.833 36.291 L 195.403 36.291 C 199.314 36.291 202.489 39.467 202.489 43.377 L 202.489 195.794 C 202.489 199.705 199.314 202.88 195.403 202.88 L 182.833 202.88 C 178.922 202.88 175.747 199.705 175.747 195.794 L 175.747 43.377 C 175.747 39.467 178.922 36.291 182.833 36.291 Z" style="stroke:none;fill:#FFFFFF;stroke-linecap:square;stroke-miterlimit:2;"/><path d="M 181.897 128.841 L 196.339 128.841 C 199.733 128.841 202.489 131.596 202.489 134.991 L 202.489 289.279 C 202.489 292.673 199.733 295.429 196.339 295.429 L 181.897 295.429 C 178.503 295.429 175.747 292.673 175.747 289.279 L 175.747 134.991 C 175.747 131.596 178.503 128.841 181.897 128.841 Z" style="stroke:none;fill:#FFFFFF;stroke-linecap:square;stroke-miterlimit:2;"/><path d="M 274.694 86.667 L 274.694 86.667 C 271.351 93.245 263.296 95.871 256.718 92.529 L 183.061 55.108 C 176.482 51.766 173.856 43.712 177.199 37.134 L 177.199 37.134 C 180.542 30.557 188.597 27.93 195.175 31.272 L 268.832 68.694 C 275.411 72.036 278.037 80.089 274.694 86.667 Z" style="stroke:none;fill:#FFFFFF;stroke-linecap:square;stroke-miterlimit:2;"/><ellipse vector-effect="non-scaling-stroke" cx="263.0194888742308" cy="82.66516900360564" rx="13.058804819597071" ry="12.590906396881294" fill="rgb(255,255,255)"/><path d="M 270.364 77.49 L 270.364 77.49 C 274.309 83.747 272.255 92.061 265.781 96.043 L 198.853 137.209 C 192.378 141.191 183.92 139.344 179.975 133.087 L 179.975 133.087 C 176.03 126.829 178.084 118.516 184.559 114.533 L 251.486 73.367 C 257.961 69.385 266.42 71.232 270.364 77.49 Z" style="stroke:none;fill:#FFFFFF;stroke-linecap:square;stroke-miterlimit:2;"/><path d="M 202.489 274.976 L 202.448 289.146 C 202.438 292.614 199.615 295.421 196.147 295.411 L 102.772 295.144 C 99.304 295.134 96.497 292.31 96.507 288.843 L 96.548 274.672 C 96.558 271.205 99.381 268.397 102.849 268.407 L 196.224 268.675 C 199.691 268.685 202.499 271.508 202.489 274.976 Z" style="stroke:none;fill:#FFFFFF;stroke-linecap:square;stroke-miterlimit:2;"/><path d="M 202.425 219.163 L 202.263 234.135 C 202.228 237.381 199.564 239.988 196.318 239.953 L 147.582 239.425 C 144.336 239.39 141.729 236.726 141.764 233.48 L 141.926 218.508 C 141.962 215.262 144.626 212.655 147.872 212.69 L 196.607 213.218 C 199.853 213.253 202.46 215.917 202.425 219.163 Z" style="stroke:none;fill:#FFFFFF;stroke-linecap:square;stroke-miterlimit:2;"/><line x1="63.105" y1="60.029" x2="63.105" y2="60.029" vector-effect="non-scaling-stroke" stroke-width="3" stroke="rgb(209,209,209)" stroke-linejoin="miter" stroke-linecap="square" stroke-miterlimit="3"/><line x1="112.654" y1="281.909" x2="189.118" y2="281.909" vector-effect="non-scaling-stroke" stroke-width="3" stroke="rgb(16,18,20)" stroke-linejoin="miter" stroke-linecap="square" stroke-miterlimit="3"/><line x1="153.794" y1="226.322" x2="189.118" y2="226.322" vector-effect="non-scaling-stroke" stroke-width="3" stroke="rgb(16,18,20)" stroke-linejoin="miter" stroke-linecap="square" stroke-miterlimit="3"/><line x1="189.118" y1="281.909" x2="189.118" y2="43.391" vector-effect="non-scaling-stroke" stroke-width="3" stroke="rgb(16,18,20)" stroke-linejoin="miter" stroke-linecap="square" stroke-miterlimit="3"/><line x1="190.2" y1="43.391" x2="260.217" y2="81.665" vector-effect="non-scaling-stroke" stroke-width="3" stroke="rgb(16,18,20)" stroke-linejoin="miter" stroke-linecap="square" stroke-miterlimit="3"/><line x1="190.2" y1="127.911" x2="260.139" y2="82.665" vector-effect="non-scaling-stroke" stroke-width="3" stroke="rgb(0,0,0)" stroke-linejoin="miter" stroke-linecap="square" stroke-miterlimit="3"/><ellipse vector-effect="non-scaling-stroke" cx="189.11800758996006" cy="43.3908903197938" rx="5.92431242071936" ry="6.208776369772231" fill="rgb(16,18,20)"/><ellipse vector-effect="non-scaling-stroke" cx="260.13937300495763" cy="82.66516900360563" rx="5.9243124207193745" ry="6.208776369772238" fill="rgb(16,18,20)"/><ellipse vector-effect="non-scaling-stroke" cx="189.11800758996006" cy="127.91143110152794" rx="5.92431242071936" ry="6.208776369772238" fill="rgb(16,18,20)"/><ellipse vector-effect="non-scaling-stroke" cx="189.11800758996006" cy="226.3215837865164" rx="5.92431242071936" ry="6.208776369772238" fill="rgb(16,18,20)"/><ellipse vector-effect="non-scaling-stroke" cx="189.11800758996006" cy="281.9092587742035" rx="5.92431242071936" ry="6.208776369772238" fill="rgb(16,18,20)"/><ellipse vector-effect="non-scaling-stroke" cx="153.79439363109995" cy="226.3215837865164" rx="5.92431242071936" ry="6.208776369772238" fill="rgb(16,18,20)"/><ellipse vector-effect="non-scaling-stroke" cx="110.0963857849772" cy="281.9092587742035" rx="5.92431242071936" ry="6.208776369772238" fill="rgb(16,18,20)"/></g></svg>